<svg width="16" height="16" viewBox="0 0 16 16" fill="none" xmlns="http://www.w3.org/2000/svg">
<path d="M6.60469 7.8175C5.96769 7.8175 5.34669 7.677 4.80194 7.41L3.58644 7.76025C3.50419 7.784 3.41469 7.76375 3.35044 7.70625C3.28644 7.649 3.25619 7.5625 3.27069 7.47775L3.46694 6.333C3.03319 5.76775 2.80469 5.1055 2.80469 4.41C2.80469 2.52975 4.50944 1 6.60469 1C7.79994 1 8.93994 1.51225 9.65444 2.37C9.74294 2.47625 9.72844 2.63375 9.62244 2.72225C9.51594 2.81025 9.35869 2.796 9.27019 2.69025C8.64969 1.945 7.65319 1.50025 6.60469 1.50025C4.78494 1.50025 3.30469 2.80575 3.30469 4.41025C3.30469 5.026 3.51919 5.61275 3.92544 6.1065C3.97169 6.16275 3.99094 6.236 3.97869 6.3075L3.83094 7.16975L4.75794 6.9025C4.81994 6.88475 4.88619 6.8915 4.94319 6.92125C5.43794 7.18075 6.01244 7.31775 6.60469 7.31775C7.10444 7.31775 7.58219 7.22275 8.02469 7.035C8.18269 6.96825 8.37344 7.0935 8.37344 7.26525C8.37344 7.37675 8.30119 7.471 8.20094 7.5035C7.70144 7.712 7.16469 7.8175 6.60469 7.8175Z" fill="#1A2921"/>
<path d="M11.7375 6.19777L11.9825 7.45527L10.845 7.18027C10.39 7.57027 8.8775 7.78277 8.125 7.26527C9.3275 6.75777 10.16 5.67027 10.16 4.41027C10.16 3.70527 9.9 3.05527 9.4625 2.53027C11.17 2.53027 12.2125 4.28027 11.96 5.55777C11.915 5.78527 11.84 6.00027 11.7375 6.19777Z" fill="#1A2921"/>
<path d="M11.9985 6.23277C12.091 6.03527 12.161 5.82527 12.2035 5.60527C12.3535 4.85277 12.1035 3.96527 11.551 3.29527C11.0385 2.67277 10.341 2.31527 9.57598 2.28527C9.53848 2.28027 9.50098 2.28027 9.46098 2.28027C9.36348 2.28027 9.27598 2.33527 9.23348 2.42527C9.19348 2.51277 9.20598 2.61527 9.26848 2.69027C9.68848 3.19277 9.90848 3.78777 9.90848 4.41027C9.90848 5.52027 9.17348 6.55027 8.03098 7.03277C8.02848 7.03277 8.02598 7.03277 8.02348 7.03527C7.98098 7.05527 7.94848 7.08277 7.92098 7.11777C7.89598 7.15277 7.87848 7.19527 7.87598 7.24027C7.87348 7.27027 7.87598 7.29777 7.88098 7.32777C7.88598 7.34527 7.89098 7.36277 7.89848 7.38027L7.90348 7.38527C7.92098 7.41777 7.94848 7.44777 7.98098 7.47027C7.99098 7.47777 8.00098 7.48277 8.01098 7.48777C8.01598 7.49277 8.01848 7.49277 8.02348 7.49527C8.04598 7.51277 8.07348 7.52777 8.09848 7.54277C8.44848 7.74027 8.89848 7.82277 9.34598 7.82277C9.95348 7.82277 10.5585 7.67027 10.8985 7.45027L11.9235 7.69777C12.0035 7.71777 12.0935 7.69527 12.1535 7.63527C12.216 7.57777 12.2435 7.49027 12.226 7.40777L11.9985 6.23277ZM10.681 6.99027C10.396 7.23527 9.42098 7.43027 8.70598 7.25027C9.75598 6.62277 10.4085 5.55527 10.4085 4.41027C10.4085 3.85777 10.2635 3.32527 9.98598 2.84527C10.436 2.96027 10.8435 3.22277 11.166 3.61277C11.616 4.16277 11.831 4.90777 11.7135 5.51027C11.6735 5.71277 11.606 5.90527 11.5135 6.08277C11.4885 6.13277 11.481 6.19027 11.491 6.24527L11.661 7.12027L10.901 6.93777C10.8235 6.91777 10.741 6.93777 10.681 6.99027Z" fill="#1A2921"/>
<path d="M8.12359 7.51465H8.12109C7.98309 7.51465 7.87109 7.40265 7.87109 7.26465C7.87109 7.12665 7.98309 7.01465 8.12109 7.01465C8.25909 7.01465 8.37234 7.12665 8.37234 7.26465C8.37234 7.40265 8.26159 7.51465 8.12359 7.51465Z" fill="#1A2921"/>
<path d="M5.03125 4.91891C4.89325 4.91891 4.78125 4.80691 4.78125 4.66891V4.14941C4.78125 4.01141 4.89325 3.89941 5.03125 3.89941C5.16925 3.89941 5.28125 4.01141 5.28125 4.14941V4.66891C5.28125 4.80691 5.16925 4.91891 5.03125 4.91891Z" fill="#1A2921"/>
<path d="M6.60547 4.91891C6.46747 4.91891 6.35547 4.80691 6.35547 4.66891V4.14941C6.35547 4.01141 6.46747 3.89941 6.60547 3.89941C6.74347 3.89941 6.85547 4.01141 6.85547 4.14941V4.66891C6.85547 4.80691 6.74347 4.91891 6.60547 4.91891Z" fill="#1A2921"/>
<path d="M8.18359 4.91891C8.04559 4.91891 7.93359 4.80691 7.93359 4.66891V4.14941C7.93359 4.01141 8.04559 3.89941 8.18359 3.89941C8.32159 3.89941 8.43359 4.01141 8.43359 4.14941V4.66891C8.43359 4.80691 8.32159 4.91891 8.18359 4.91891Z" fill="#1A2921"/>
<path d="M1.94891 14.2498C1.42791 14.2498 1.00391 13.7486 1.00391 13.1321C1.00391 11.6566 1.98791 10.4561 3.19716 10.4561H3.28966C3.42766 10.4561 3.53966 10.5681 3.53966 10.7061C3.53966 10.8441 3.42766 10.9561 3.28966 10.9561H3.19716C2.26341 10.9561 1.50391 11.9323 1.50391 13.1321C1.50391 13.4668 1.70766 13.7498 1.94891 13.7498C2.08691 13.7498 2.19891 13.8618 2.19891 13.9998C2.19891 14.1378 2.08691 14.2498 1.94891 14.2498Z" fill="#1A2921"/>
<path d="M4.44961 8.80219C4.19211 8.41219 3.75961 8.17969 3.29211 8.17969H3.28711C2.72711 8.17969 2.22961 8.49469 2.02461 8.97969C1.82961 9.44219 1.86961 9.93719 2.13211 10.3347C2.20961 10.4522 2.30211 10.5522 2.40711 10.6372C2.65211 10.8422 2.96211 10.9572 3.28961 10.9572H3.29461C3.85711 10.9572 4.35211 10.6422 4.55961 10.1547C4.75461 9.69219 4.71461 9.19969 4.44961 8.80219ZM4.09711 9.95969C3.97211 10.2572 3.64961 10.4572 3.28961 10.4572C2.99211 10.4572 2.71461 10.3072 2.54961 10.0572C2.37961 9.80219 2.35711 9.47969 2.48461 9.17469C2.60961 8.87969 2.93211 8.67969 3.28711 8.67969H3.29211C3.59211 8.67969 3.86961 8.82719 4.03461 9.07719C4.20461 9.33469 4.22711 9.65469 4.09711 9.95969Z" fill="#1A2921"/>
<path d="M6.84122 13.9993H4.01172L4.73372 11.3613H7.56322L6.84122 13.9993Z" fill="#7C9A82"/>
<path d="M7.76285 11.2098C7.71535 11.1473 7.64035 11.1123 7.56285 11.1123H4.73535C4.62035 11.1123 4.52285 11.1873 4.49285 11.2948L3.82035 13.7498L3.77035 13.9348C3.75035 14.0098 3.76535 14.0898 3.81285 14.1523C3.86035 14.2123 3.93535 14.2498 4.01285 14.2498H6.84035C6.95535 14.2498 7.05285 14.1748 7.08285 14.0648L7.80535 11.4273C7.82535 11.3523 7.81035 11.2723 7.76285 11.2098ZM4.34035 13.7498L4.92535 11.6123H7.23535L6.65035 13.7498H4.34035Z" fill="#7C9A82"/>
<path d="M6.56965 12.0845C6.43715 11.912 6.22465 11.8145 5.98965 11.8145C5.53465 11.8145 5.08715 12.167 4.96965 12.617C4.90715 12.8595 4.94965 13.0995 5.08465 13.277C5.21965 13.4495 5.43215 13.547 5.66715 13.547C5.89465 13.547 6.11965 13.4595 6.30465 13.3145C6.48715 13.1695 6.62715 12.9695 6.68715 12.7445C6.74965 12.502 6.70715 12.262 6.56965 12.0845ZM6.20465 12.617C6.14465 12.847 5.89465 13.047 5.66715 13.047C5.60965 13.047 5.52965 13.0345 5.48215 12.972C5.43965 12.917 5.42965 12.8345 5.45215 12.7445C5.51215 12.5145 5.76215 12.3145 5.98965 12.3145C6.04715 12.3145 6.12715 12.327 6.17465 12.3895C6.21715 12.4445 6.22715 12.5245 6.20465 12.617Z" fill="#1A2921"/>
<path d="M4.03228 14.25H2.83203C2.69403 14.25 2.58203 14.138 2.58203 14C2.58203 13.862 2.69403 13.75 2.83203 13.75H4.03228C4.17028 13.75 4.28228 13.862 4.28228 14C4.28228 14.138 4.17028 14.25 4.03228 14.25Z" fill="#7C9A82"/>
<path d="M3.43025 12.9307H2.75C2.612 12.9307 2.5 12.8187 2.5 12.6807C2.5 12.5427 2.612 12.4307 2.75 12.4307H3.43025C3.56825 12.4307 3.68025 12.5427 3.68025 12.6807C3.68025 12.8187 3.56825 12.9307 3.43025 12.9307Z" fill="#1A2921"/>
<path d="M14.0085 14.2498C13.8705 14.2498 13.7585 14.1378 13.7585 13.9998C13.7585 13.8618 13.8705 13.7498 14.0085 13.7498C14.2497 13.7498 14.4535 13.4671 14.4535 13.1321C14.4535 11.9323 13.694 10.9561 12.7605 10.9561H12.668C12.53 10.9561 12.418 10.8441 12.418 10.7061C12.418 10.5681 12.53 10.4561 12.668 10.4561H12.7605C13.9697 10.4561 14.9535 11.6566 14.9535 13.1321C14.9535 13.7483 14.5295 14.2498 14.0085 14.2498Z" fill="#1A2921"/>
<path d="M13.9329 8.97969C13.7279 8.49469 13.2329 8.17969 12.6704 8.17969H12.6654C12.1979 8.17969 11.7654 8.41219 11.5079 8.80219C11.2429 9.19969 11.2054 9.69219 11.4004 10.1547C11.6054 10.6422 12.1004 10.9572 12.6679 10.9572C12.9954 10.9572 13.3054 10.8422 13.5504 10.6372C13.6554 10.5522 13.7504 10.4522 13.8254 10.3347C14.0904 9.93719 14.1279 9.44219 13.9329 8.97969ZM13.4079 10.0572C13.2429 10.3047 12.9679 10.4547 12.6679 10.4572H12.6629C12.3079 10.4572 11.9854 10.2572 11.8604 9.95969C11.7304 9.65469 11.7554 9.33469 11.9254 9.07719C12.0904 8.82719 12.3679 8.67969 12.6654 8.67969H12.6704C13.0254 8.67969 13.3479 8.87969 13.4729 9.17469C13.6029 9.47969 13.5779 9.80219 13.4079 10.0572Z" fill="#1A2921"/>
<path d="M9.11628 13.9993H11.9458L11.2238 11.3613H8.39453L9.11628 13.9993Z" fill="#7C9A82"/>
<path d="M12.1868 13.9348L12.1368 13.7498L11.4643 11.2948C11.4343 11.1873 11.3368 11.1123 11.2243 11.1123H8.39426C8.31676 11.1123 8.24176 11.1473 8.19676 11.2098C8.14926 11.2723 8.13176 11.3523 8.15426 11.4273L8.87426 14.0648C8.90426 14.1748 9.00426 14.2498 9.11676 14.2498H11.9468C12.0243 14.2498 12.0968 14.2123 12.1443 14.1523C12.1918 14.0898 12.2068 14.0098 12.1868 13.9348ZM9.30676 13.7498L8.72176 11.6123H11.0343L11.6193 13.7498H9.30676Z" fill="#7C9A82"/>
<path d="M10.9936 12.617C10.8761 12.167 10.4286 11.8145 9.97359 11.8145C9.73609 11.8145 9.52359 11.912 9.39109 12.0845C9.29609 12.2095 9.24609 12.362 9.24609 12.527C9.24609 12.5995 9.25359 12.672 9.27359 12.7445C9.39109 13.1945 9.83859 13.547 10.2936 13.547C10.5311 13.547 10.7436 13.4495 10.8761 13.277C11.0136 13.0995 11.0561 12.8595 10.9936 12.617ZM10.4811 12.972C10.4311 13.0345 10.3511 13.047 10.2936 13.047C10.0686 13.047 9.81859 12.847 9.75859 12.617C9.73359 12.5245 9.74359 12.4445 9.78609 12.3895C9.83609 12.327 9.91609 12.3145 9.97359 12.3145C10.1986 12.3145 10.4486 12.5145 10.5086 12.7445C10.5336 12.8345 10.5236 12.917 10.4811 12.972Z" fill="#1A2921"/>
<path d="M13.126 14.25H11.9258C11.7878 14.25 11.6758 14.138 11.6758 14C11.6758 13.862 11.7878 13.75 11.9258 13.75H13.126C13.264 13.75 13.376 13.862 13.376 14C13.376 14.138 13.264 14.25 13.126 14.25Z" fill="#7C9A82"/>
<path d="M13.2076 12.9307H12.5273C12.3893 12.9307 12.2773 12.8187 12.2773 12.6807C12.2773 12.5427 12.3893 12.4307 12.5273 12.4307H13.2076C13.3456 12.4307 13.4576 12.5427 13.4576 12.6807C13.4576 12.8187 13.3456 12.9307 13.2076 12.9307Z" fill="#1A2921"/>
</svg>
