<svg width="16" height="16" viewBox="0 0 16 16" fill="none" xmlns="http://www.w3.org/2000/svg">
<g opacity="0.8">
<path d="M6.0355 11.1256H2C1.4485 11.1256 1 10.6771 1 10.1256V9.78809C1 9.65009 1.112 9.53809 1.25 9.53809H6.89875C7.03675 9.53809 7.14875 9.65009 7.14875 9.78809C7.14875 9.92609 7.03675 10.0381 6.89875 10.0381H1.5V10.1256C1.5 10.4013 1.72425 10.6256 2 10.6256H6.0355C6.1735 10.6256 6.2855 10.7376 6.2855 10.8756C6.2855 11.0136 6.1735 11.1256 6.0355 11.1256Z" fill="#1A2921"/>
<path d="M1.25 10.0377C1.112 10.0377 1 9.9257 1 9.7877V4.5752C1 4.0237 1.4485 3.5752 2 3.5752H9.0725C9.624 3.5752 10.0725 4.0237 10.0725 4.5752C10.0725 4.71319 9.9605 4.82519 9.8225 4.82519C9.6845 4.82519 9.5725 4.71319 9.5725 4.5752C9.5725 4.29945 9.34825 4.0752 9.0725 4.0752H2C1.72425 4.0752 1.5 4.29945 1.5 4.5752V9.7877C1.5 9.9257 1.388 10.0377 1.25 10.0377Z" fill="#1A2921"/>
<path d="M5.53625 12.8857H2.75C2.612 12.8857 2.5 12.7737 2.5 12.6357C2.5 12.4977 2.612 12.3857 2.75 12.3857H5.53625C5.67425 12.3857 5.78625 12.4977 5.78625 12.6357C5.78625 12.7737 5.67425 12.8857 5.53625 12.8857Z" fill="#1A2921"/>
<path d="M3.84414 12.8857C3.82589 12.8857 3.80764 12.8837 3.78889 12.8797C3.65414 12.8495 3.56964 12.7157 3.59989 12.581L3.99614 10.82C4.02639 10.6852 4.16014 10.6012 4.29489 10.631C4.42964 10.6612 4.51414 10.795 4.48389 10.9297L4.08764 12.6907C4.06164 12.807 3.95864 12.8857 3.84414 12.8857Z" fill="#1A2921"/>
<path d="M4.52051 6.87225L4.42626 6.50625C4.36576 6.2715 4.22426 6.076 4.03801 5.94175C4.11951 5.82525 4.16826 5.684 4.16826 5.53125C4.16826 5.135 3.84576 4.8125 3.44951 4.8125C3.05326 4.8125 2.73076 5.135 2.73076 5.53125C2.73076 5.684 2.77951 5.82525 2.86126 5.942C2.67501 6.07625 2.53376 6.27175 2.47326 6.5065L2.37901 6.8725C2.35976 6.94725 2.37601 7.027 2.42351 7.088C2.47076 7.14925 2.54376 7.185 2.62126 7.185H4.27851C4.35576 7.185 4.42876 7.14925 4.47626 7.088C4.52351 7.027 4.54001 6.9475 4.52076 6.8725L4.52051 6.87225Z" fill="#1A2921"/>
<path d="M4.52066 9.72429L4.42616 9.36079C4.36641 9.12504 4.22491 8.92879 4.03791 8.79429C4.11941 8.67779 4.16816 8.53654 4.16816 8.38379C4.16816 7.98754 3.84566 7.66504 3.44941 7.66504C3.05316 7.66504 2.73066 7.98754 2.73066 8.38379C2.73066 8.53679 2.77941 8.67779 2.86116 8.79454C2.85091 8.80204 2.83916 8.80754 2.82916 8.81554C2.65441 8.95279 2.52816 9.14654 2.47416 9.35929L2.37916 9.72429C2.35966 9.79929 2.37591 9.87904 2.42341 9.94029C2.47066 10.0015 2.54366 10.0373 2.62116 10.0373H4.27866C4.35616 10.0373 4.42916 10.0013 4.47641 9.94029C4.52366 9.87904 4.54016 9.79929 4.52066 9.72429Z" fill="#1A2921"/>
<path d="M5.53906 9.97247C5.40106 9.97247 5.28906 9.86047 5.28906 9.72247V3.82422C5.28906 3.68622 5.40106 3.57422 5.53906 3.57422C5.67706 3.57422 5.78906 3.68622 5.78906 3.82422V9.72247C5.78906 9.86047 5.67706 9.97247 5.53906 9.97247Z" fill="#1A2921"/>
<path d="M5.5365 7.18457H1.25C1.112 7.18457 1 7.07257 1 6.93457C1 6.79657 1.112 6.68457 1.25 6.68457H5.5365C5.6745 6.68457 5.7865 6.79657 5.7865 6.93457C5.7865 7.07257 5.6745 7.18457 5.5365 7.18457Z" fill="#1A2921"/>
<path d="M14.4479 11.6707C14.2524 10.5802 13.3947 9.75369 12.3327 9.57369C12.7449 9.12744 12.9789 8.54119 12.9789 7.91519C12.9789 6.56194 11.8779 5.46094 10.5249 5.46094C9.17191 5.46094 8.07066 6.56194 8.07066 7.91519C8.07066 8.54119 8.30491 9.12744 8.71691 9.57369C7.99841 9.69469 7.36316 10.1119 6.96616 10.7399C6.78291 11.0264 6.65991 11.3394 6.60066 11.6709L6.05091 14.7052C6.03766 14.7782 6.05741 14.8532 6.10491 14.9099C6.15241 14.9669 6.22266 14.9997 6.29691 14.9997H14.7519C14.8259 14.9997 14.8964 14.9669 14.9439 14.9099C14.9914 14.8529 15.0112 14.7779 14.9979 14.7052L14.4479 11.6707Z" fill="#7C9A82"/>
<path d="M8.22682 14.2493C8.21207 14.2493 8.19707 14.2481 8.18207 14.2453C8.04632 14.2208 7.95607 14.0906 7.98057 13.9548L8.32807 12.0348C8.35257 11.8991 8.48182 11.8081 8.61857 11.8333C8.75432 11.8578 8.84457 11.9881 8.82007 12.1238L8.47257 14.0438C8.45082 14.1646 8.34557 14.2493 8.22682 14.2493Z" fill="#1A2921"/>
<path d="M12.8239 14.2494C12.7051 14.2494 12.5999 14.1646 12.5781 14.0439L12.2306 12.1239C12.2059 11.9881 12.2961 11.8579 12.4321 11.8334C12.5689 11.8079 12.6981 11.8991 12.7226 12.0349L13.0701 13.9549C13.0949 14.0906 13.0046 14.2209 12.8686 14.2454C12.8534 14.2481 12.8386 14.2494 12.8239 14.2494Z" fill="#1A2921"/>
<path d="M10.5261 10.3221C10.3613 10.3221 10.1971 10.2983 10.0516 10.2538C9.91958 10.2131 9.84558 10.0733 9.88608 9.94132C9.92683 9.80932 10.0663 9.73507 10.1986 9.77582C10.3958 9.83657 10.6558 9.83657 10.8551 9.77582C10.9868 9.73507 11.1268 9.81007 11.1673 9.94207C11.2076 10.0741 11.1331 10.2138 11.0011 10.2543C10.8526 10.2996 10.6928 10.3226 10.5261 10.3226V10.3221Z" fill="#1A2921"/>
<path d="M5.84697 3.1755H5.22447C4.62472 3.1755 4.13672 2.6875 4.13672 2.08775C4.13672 1.488 4.62472 1 5.22447 1H5.84697C6.44672 1 6.93472 1.488 6.93472 2.08775C6.93472 2.6875 6.44672 3.1755 5.84697 3.1755ZM5.22447 1.5C4.90047 1.5 4.63672 1.76375 4.63672 2.08775C4.63672 2.41175 4.90047 2.6755 5.22447 2.6755H5.84697C6.17097 2.6755 6.43472 2.41175 6.43472 2.08775C6.43472 1.76375 6.17097 1.5 5.84697 1.5H5.22447Z" fill="#1A2921"/>
<path d="M6.89816 4.07409H4.17566C4.07866 4.07409 3.99041 4.01809 3.94941 3.93034C3.90841 3.84259 3.92141 3.73884 3.98341 3.66434L4.76591 2.72259C4.85416 2.61659 5.01166 2.60184 5.11791 2.69009C5.22416 2.77834 5.23866 2.93584 5.15041 3.04209L4.70841 3.57409H6.36516L5.92091 3.04009C5.83266 2.93384 5.84716 2.77634 5.95316 2.68784C6.05916 2.59934 6.21691 2.61384 6.30541 2.72009L7.09041 3.66384C7.15241 3.73834 7.16566 3.84209 7.12441 3.92984C7.08316 4.01759 6.99491 4.07359 6.89816 4.07359V4.07409Z" fill="#1A2921"/>
<path d="M5.60859 2.33789H5.46484C5.32684 2.33789 5.21484 2.22589 5.21484 2.08789C5.21484 1.94989 5.32684 1.83789 5.46484 1.83789H5.60859C5.74659 1.83789 5.85859 1.94989 5.85859 2.08789C5.85859 2.22589 5.74659 2.33789 5.60859 2.33789Z" fill="#1A2921"/>
<path d="M13.6626 13.5H12.6836C12.5456 13.5 12.4336 13.388 12.4336 13.25C12.4336 13.112 12.5456 13 12.6836 13H13.6626C13.8006 13 13.9126 13.112 13.9126 13.25C13.9126 13.388 13.8006 13.5 13.6626 13.5Z" fill="#1A2921"/>
<path d="M8.35791 13.5H7.37891C7.24091 13.5 7.12891 13.388 7.12891 13.25C7.12891 13.112 7.24091 13 7.37891 13H8.35791C8.49591 13 8.60791 13.112 8.60791 13.25C8.60791 13.388 8.49591 13.5 8.35791 13.5Z" fill="#1A2921"/>
</g>
</svg>
