<svg width="16" height="16" viewBox="0 0 16 16" fill="none" xmlns="http://www.w3.org/2000/svg">
<g opacity="0.8">
<path d="M14.749 8.67496H8.49128C8.35303 8.67496 8.24128 8.56296 8.24128 8.42496C8.24128 8.28696 8.35303 8.17496 8.49128 8.17496H14.499V7.39746H8.48828C8.35003 7.39746 8.23828 7.28546 8.23828 7.14746C8.23828 7.00946 8.35003 6.89746 8.48828 6.89746H14.749C14.8873 6.89746 14.999 7.00946 14.999 7.14746V8.42496C14.999 8.56296 14.8873 8.67496 14.749 8.67496Z" fill="#1A2921"/>
<path d="M2.75 8.67496H1.25C1.11175 8.67496 1 8.56296 1 8.42496V7.14746C1 7.00946 1.11175 6.89746 1.25 6.89746H2.751C2.88925 6.89746 3.001 7.00946 3.001 7.14746C3.001 7.28546 2.88925 7.39746 2.751 7.39746H1.5V8.17496H2.75C2.88825 8.17496 3 8.28696 3 8.42496C3 8.56296 2.88825 8.67496 2.75 8.67496Z" fill="#1A2921"/>
<path d="M13.5002 7.39751H10.047C9.96245 7.39751 9.8837 7.35476 9.83745 7.28376C9.7912 7.21301 9.78395 7.12351 9.81845 7.04626L10.4145 5.70051C10.4545 5.61001 10.5442 5.55176 10.643 5.55176H12.9045C13.0035 5.55176 13.093 5.61001 13.133 5.70051L13.729 7.04626C13.7635 7.12351 13.756 7.21301 13.71 7.28376C13.6637 7.35476 13.585 7.39751 13.5005 7.39751H13.5002ZM10.431 6.89751H13.1162L12.7417 6.05176H10.8055L10.431 6.89751Z" fill="#1A2921"/>
<path d="M14.9994 1.7175V4.5275H8.54688V1.7175C8.54688 1.3225 8.86938 1 9.26438 1H14.2819C14.6769 1 14.9994 1.3225 14.9994 1.7175Z" fill="#1A2921"/>
<path d="M8.54688 5.02734H14.9994V5.33484C14.9994 5.72984 14.6769 6.05234 14.2819 6.05234H9.26438C8.86938 6.05234 8.54688 5.72984 8.54688 5.33484V5.02734Z" fill="#1A2921"/>
<path d="M2 14.2496C1.86175 14.2496 1.75 14.1376 1.75 13.9996V8.4248C1.75 8.2868 1.86175 8.1748 2 8.1748C2.13825 8.1748 2.25 8.2868 2.25 8.4248V13.9996C2.25 14.1376 2.13825 14.2496 2 14.2496Z" fill="#1A2921"/>
<path d="M14.2289 14.2496H9.49219C9.35394 14.2496 9.24219 14.1376 9.24219 13.9996V8.42383C9.24219 8.28583 9.35394 8.17383 9.49219 8.17383H14.2289C14.3672 8.17383 14.4789 8.28583 14.4789 8.42383V13.9996C14.4789 14.1376 14.3672 14.2496 14.2289 14.2496ZM9.74219 13.7496H13.9789V8.67383H9.74219V13.7496Z" fill="#1A2921"/>
<path d="M14.2289 10.5332H9.49219C9.35394 10.5332 9.24219 10.4212 9.24219 10.2832C9.24219 10.1452 9.35394 10.0332 9.49219 10.0332H14.2289C14.3672 10.0332 14.4789 10.1452 14.4789 10.2832C14.4789 10.4212 14.3672 10.5332 14.2289 10.5332Z" fill="#1A2921"/>
<path d="M14.2289 12.3916H9.49219C9.35394 12.3916 9.24219 12.2796 9.24219 12.1416C9.24219 12.0036 9.35394 11.8916 9.49219 11.8916H14.2289C14.3672 11.8916 14.4789 12.0036 14.4789 12.1416C14.4789 12.2796 14.3672 12.3916 14.2289 12.3916Z" fill="#1A2921"/>
<path d="M11.9322 9.56348H11.5664C11.4282 9.56348 11.3164 9.45148 11.3164 9.31348C11.3164 9.17548 11.4282 9.06348 11.5664 9.06348H11.9322C12.0704 9.06348 12.1822 9.17548 12.1822 9.31348C12.1822 9.45148 12.0704 9.56348 11.9322 9.56348Z" fill="#1A2921"/>
<path d="M11.9322 11.4619H11.5664C11.4282 11.4619 11.3164 11.3499 11.3164 11.2119C11.3164 11.0739 11.4282 10.9619 11.5664 10.9619H11.9322C12.0704 10.9619 12.1822 11.0739 12.1822 11.2119C12.1822 11.3499 12.0704 11.4619 11.9322 11.4619Z" fill="#1A2921"/>
<path d="M11.9322 13.3594H11.5664C11.4282 13.3594 11.3164 13.2474 11.3164 13.1094C11.3164 12.9714 11.4282 12.8594 11.5664 12.8594H11.9322C12.0704 12.8594 12.1822 12.9714 12.1822 13.1094C12.1822 13.2474 12.0704 13.3594 11.9322 13.3594Z" fill="#1A2921"/>
<path d="M7.67791 13.1607L5.86941 12.7957V10.543H6.78616C7.56816 10.543 8.20416 9.90695 8.20416 9.12495C8.20416 8.98695 8.09241 8.87495 7.95416 8.87495H5.86941V8.3892H6.72366C7.36041 8.3892 7.87841 7.8712 7.87841 7.23445V5.2922C7.87841 4.0467 6.86491 3.0332 5.61941 3.0332C4.37391 3.0332 3.36066 4.04645 3.36066 5.2922V7.23445C3.36066 7.8712 3.87866 8.3892 4.51541 8.3892H5.36941V8.87495H3.28516C3.14691 8.87495 3.03516 8.98695 3.03516 9.12495C3.03516 9.9067 3.67116 10.543 4.45291 10.543H5.36941V12.796L3.56116 13.161C3.44466 13.1845 3.36066 13.287 3.36066 13.406V14.0005C3.36066 14.1385 3.47241 14.2505 3.61066 14.2505C3.74891 14.2505 3.86066 14.1385 3.86066 14.0005V13.6105L5.36941 13.3057V14.0005C5.36941 14.1385 5.48116 14.2505 5.61941 14.2505C5.75766 14.2505 5.86941 14.1385 5.86941 14.0005V13.3057L7.37841 13.6105V14.0005C7.37841 14.1385 7.49016 14.2505 7.62841 14.2505C7.76666 14.2505 7.87841 14.1385 7.87841 14.0005V13.406C7.87841 13.287 7.79441 13.1842 7.67791 13.1607Z" fill="#7C9A82"/>
</g>
</svg>
