<svg width="16" height="16" viewBox="0 0 16 16" fill="none" xmlns="http://www.w3.org/2000/svg">
<g opacity="0.8">
<path d="M5.93177 15.0385H2.57427C2.49602 15.0385 2.42202 15.0017 2.37477 14.9392C2.32752 14.8765 2.31227 14.7955 2.33377 14.72L2.61627 13.73C2.73852 13.3052 3.04427 12.9685 3.45477 12.8062C3.65777 12.7267 3.85052 12.6705 4.04177 12.6335C4.44127 12.557 4.84577 12.5572 5.24427 12.6335C5.43577 12.6705 5.62852 12.727 5.81802 12.801C6.13002 12.9227 6.38202 13.1422 6.54027 13.4242C6.60802 13.5445 6.56502 13.697 6.44452 13.7645C6.32477 13.832 6.17202 13.7897 6.10427 13.6687C6.00252 13.4875 5.84078 13.3465 5.64902 13.2717C5.47502 13.2037 5.31102 13.1557 5.14977 13.1242C4.81877 13.0607 4.46828 13.0605 4.13678 13.1242C3.97553 13.1555 3.81202 13.2032 3.65102 13.2662C3.37402 13.3757 3.17652 13.5935 3.09752 13.8675L2.90602 14.5385H5.93202C6.07027 14.5385 6.18202 14.6502 6.18202 14.7885C6.18202 14.9267 6.07027 15.0385 5.93202 15.0385H5.93177Z" fill="#1A2921"/>
<path d="M4.64363 12.4428C4.03888 12.4428 3.54688 11.9505 3.54688 11.3458C3.54688 10.741 4.03888 10.249 4.64363 10.249C5.24837 10.249 5.74038 10.741 5.74038 11.3458C5.74038 11.9505 5.24837 12.4428 4.64363 12.4428ZM4.64363 10.7493C4.31463 10.7493 4.04688 11.0168 4.04688 11.346C4.04688 11.6753 4.31438 11.943 4.64363 11.943C4.97287 11.943 5.24038 11.6753 5.24038 11.346C5.24038 11.0168 4.97287 10.7493 4.64363 10.7493Z" fill="#1A2921"/>
<path d="M10.3124 14.719L10.0294 13.7298C9.90966 13.3115 9.59641 12.966 9.17741 12.8C8.99216 12.7275 8.79916 12.6715 8.60366 12.6333C8.20491 12.5573 7.80041 12.557 7.40116 12.6333C7.20641 12.6713 7.01341 12.7273 6.81466 12.8053C6.40916 12.9658 6.09566 13.311 5.97616 13.729L5.69316 14.7185C5.67166 14.794 5.68691 14.8753 5.73391 14.938C5.78116 15.0005 5.85516 15.0373 5.93366 15.0373H10.0719C10.1502 15.0373 10.2242 15.0005 10.2717 14.938C10.3187 14.8753 10.3339 14.794 10.3124 14.7185V14.719Z" fill="#1A2921"/>
<path d="M8.003 10.249C7.39825 10.249 6.90625 10.741 6.90625 11.3458C6.90625 11.9505 7.39825 12.4428 8.003 12.4428C8.60775 12.4428 9.09975 11.9505 9.09975 11.3458C9.09975 10.741 8.60775 10.249 8.003 10.249Z" fill="#1A2921"/>
<path d="M13.4274 15.0392H10.0699C9.93163 15.0392 9.81988 14.9275 9.81988 14.7892C9.81988 14.651 9.93163 14.5392 10.0699 14.5392H13.0959L12.9041 13.8677C12.8256 13.594 12.6281 13.3765 12.3626 13.2715C12.1899 13.2037 12.0261 13.156 11.8646 13.1245C11.5336 13.061 11.1831 13.0607 10.8516 13.1245C10.6906 13.1557 10.5269 13.2035 10.3654 13.2665C10.1611 13.3462 9.99938 13.4875 9.89763 13.6685C9.82988 13.789 9.67688 13.8315 9.55738 13.7642C9.43713 13.6965 9.39413 13.5442 9.46163 13.424C9.61988 13.142 9.87188 12.9225 10.1714 12.8057C10.3734 12.7267 10.5661 12.6702 10.7571 12.6335C11.1566 12.557 11.5611 12.5572 11.9596 12.6335C12.1514 12.6707 12.3441 12.727 12.5334 12.801C12.9574 12.969 13.2631 13.3057 13.3851 13.73L13.6679 14.7205C13.6894 14.796 13.6741 14.877 13.6269 14.9397C13.5799 15.0022 13.5059 15.0392 13.4274 15.0392Z" fill="#1A2921"/>
<path d="M11.3585 12.4428C10.7537 12.4428 10.2617 11.9505 10.2617 11.3458C10.2617 10.741 10.7537 10.249 11.3585 10.249C11.9632 10.249 12.4555 10.741 12.4555 11.3458C12.4555 11.9505 11.9632 12.4428 11.3585 12.4428ZM11.3585 10.7493C11.0295 10.7493 10.7617 11.0168 10.7617 11.346C10.7617 11.6753 11.0292 11.943 11.3585 11.943C11.6877 11.943 11.9555 11.6753 11.9555 11.346C11.9555 11.0168 11.6877 10.7493 11.3585 10.7493Z" fill="#1A2921"/>
<path d="M3.7375 9.55677C3.69525 9.55677 3.65325 9.54602 3.61525 9.52477L2.4245 8.85652H1.25C1.11175 8.85652 1 8.74477 1 8.60652V6.06152C1 5.92327 1.11175 5.81152 1.25 5.81152H4.64075C4.779 5.81152 4.89075 5.92327 4.89075 6.06152C4.89075 6.19977 4.779 6.31152 4.64075 6.31152H1.5V8.35652H2.49C2.533 8.35652 2.575 8.36752 2.61225 8.38852L3.4875 8.87977V8.60652C3.4875 8.46827 3.59925 8.35652 3.7375 8.35652H4.013C4.15125 8.35652 4.263 8.46827 4.263 8.60652C4.263 8.74477 4.15125 8.85652 4.013 8.85652H3.9875V9.30677C3.9875 9.39552 3.9405 9.47777 3.86375 9.52252C3.825 9.54527 3.78125 9.55677 3.7375 9.55677Z" fill="#1A2921"/>
<path d="M4.01309 7.19531H2.21484C2.07659 7.19531 1.96484 7.08356 1.96484 6.94531C1.96484 6.80706 2.07659 6.69531 2.21484 6.69531H4.01309C4.15134 6.69531 4.26309 6.80706 4.26309 6.94531C4.26309 7.08356 4.15134 7.19531 4.01309 7.19531Z" fill="#1A2921"/>
<path d="M4.01309 7.97266H2.21484C2.07659 7.97266 1.96484 7.86091 1.96484 7.72266C1.96484 7.58441 2.07659 7.47266 2.21484 7.47266H4.01309C4.15134 7.47266 4.26309 7.58441 4.26309 7.72266C4.26309 7.86091 4.15134 7.97266 4.01309 7.97266Z" fill="#1A2921"/>
<path d="M12.2631 9.55677C12.2194 9.55677 12.1756 9.54527 12.1369 9.52252C12.0601 9.47752 12.0131 9.39552 12.0131 9.30677V8.84527C11.9114 8.81352 11.8376 8.71852 11.8376 8.60652C11.8376 8.46827 11.9494 8.35652 12.0876 8.35652H12.2631C12.4014 8.35652 12.5131 8.46827 12.5131 8.60652V8.87977L13.3884 8.38852C13.4256 8.36752 13.4676 8.35652 13.5106 8.35652H14.5006V6.31152H11.3594C11.2211 6.31152 11.1094 6.19977 11.1094 6.06152C11.1094 5.92327 11.2211 5.81152 11.3594 5.81152H14.7506C14.8889 5.81152 15.0006 5.92327 15.0006 6.06152V8.60652C15.0006 8.74477 14.8889 8.85652 14.7506 8.85652H13.5761L12.3854 9.52477C12.3474 9.54602 12.3054 9.55677 12.2631 9.55677Z" fill="#1A2921"/>
<path d="M13.7865 7.19531H11.9883C11.85 7.19531 11.7383 7.08356 11.7383 6.94531C11.7383 6.80706 11.85 6.69531 11.9883 6.69531H13.7865C13.9248 6.69531 14.0365 6.80706 14.0365 6.94531C14.0365 7.08356 13.9248 7.19531 13.7865 7.19531Z" fill="#1A2921"/>
<path d="M13.7865 7.97266H11.9883C11.85 7.97266 11.7383 7.86091 11.7383 7.72266C11.7383 7.58441 11.85 7.47266 11.9883 7.47266H13.7865C13.9248 7.47266 14.0365 7.58441 14.0365 7.72266C14.0365 7.86091 13.9248 7.97266 13.7865 7.97266Z" fill="#1A2921"/>
<path d="M11.4393 8.64277L11.0018 7.11327C10.8288 6.50727 10.3743 6.00652 9.76601 5.76552C9.48626 5.65602 9.19626 5.57202 8.90301 5.51477C8.30401 5.40002 7.69601 5.40002 7.09626 5.51477C6.80351 5.57177 6.51351 5.65577 6.21326 5.77352C5.62526 6.00627 5.17101 6.50702 4.99826 7.11252L4.56051 8.64227C4.53876 8.71777 4.55401 8.79902 4.60101 8.86152C4.64826 8.92427 4.72226 8.96102 4.80076 8.96102H11.1993C11.2775 8.96102 11.3515 8.92427 11.399 8.86152C11.446 8.79902 11.4613 8.71777 11.4395 8.64227L11.4393 8.64277Z" fill="#7C9A82"/>
<path d="M7.0411 7.29181C7.03586 7.20472 7.07646 7.11762 7.15455 7.06684L7.88416 6.59316C7.97503 6.53409 8.09362 6.54048 8.17762 6.60856L8.84847 7.15199C8.95589 7.23895 8.97215 7.39676 8.88541 7.50366C8.79844 7.61083 8.64091 7.62757 8.53374 7.5406L8.00401 7.1114L7.42647 7.48601C7.31077 7.5611 7.15577 7.52835 7.08067 7.4124C7.05637 7.3748 7.04335 7.33325 7.04084 7.29158L7.0411 7.29181Z" fill="#1A2921"/>
<path d="M7.99728 5.08025C6.87228 5.08025 5.95703 4.16525 5.95703 3.04025C5.95703 1.91525 6.87228 1 7.99728 1C9.12228 1 10.0373 1.91525 10.0373 3.04025C10.0373 4.16525 9.12228 5.08025 7.99728 5.08025ZM7.99728 1.5C7.14803 1.5 6.45703 2.191 6.45703 3.04025C6.45703 3.8895 7.14803 4.58025 7.99728 4.58025C8.84653 4.58025 9.53728 3.88925 9.53728 3.04025C9.53728 2.19125 8.84628 1.5 7.99728 1.5Z" fill="#1A2921"/>
</g>
</svg>
