<svg width="20" height="20" viewBox="0 0 20 20" fill="none" xmlns="http://www.w3.org/2000/svg">
<path d="M20 14.9032C20 16 19.129 16.871 18.0645 16.871H1.93548C0.870968 16.871 0 16 0 14.9032V5.09677C0 4 0.870968 3.12903 1.93548 3.12903H18.0645C19.129 3.12903 20 4 20 5.09677V14.9032Z" fill="#009966"/>
<path d="M1.93359 3.12903H18.0626C19.1271 3.12903 19.9981 4 19.9981 5.09677V14.9032C19.9981 16 19.1271 16.871 18.0626 16.871" fill="#038E5C"/>
<path d="M20 14.9032C20 16 19.129 16.871 18.0645 16.871H1.93548C0.870968 16.871 0 16 0 14.9032" fill="#007A54"/>
<path d="M1.93359 3.12903H18.0626C19.1271 3.12903 19.9981 4 19.9981 5.09677V8.67742" fill="#007A54"/>
<path d="M2.44934 6.25804C2.57838 6.16126 2.57838 6.41933 2.44934 6.70965C2.51386 6.61288 2.64289 6.38707 2.61064 6.22578C2.57838 5.99997 2.44934 6.03223 2.35257 6.16126C2.28805 6.25804 2.32031 6.32255 2.44934 6.25804Z" fill="white"/>
<path d="M2.48313 8.09676C2.64442 7.80644 2.5799 7.58063 2.70893 7.16128C2.80571 6.90321 2.80571 7.09676 2.80571 7.25805C2.74119 7.67741 2.77345 8.35483 3.35409 8.32257C3.38635 8.70966 3.48313 9.38708 3.48313 9.64515C3.48313 9.87096 3.51538 9.80644 3.5799 9.67741C3.64442 9.54837 3.61216 9.38708 3.61216 9.19354C3.61216 8.99999 3.5799 8.64515 3.54764 8.16128C3.61216 8.09676 3.70893 7.99999 3.74119 7.93547C3.80571 7.77418 3.83796 7.80644 3.87022 7.93547C3.93474 8.19354 4.1928 8.35483 4.51538 8.09676C4.83796 7.87096 4.70893 7.41934 4.54764 6.93547C4.67667 6.96773 4.70893 6.87095 4.64442 6.74192C4.61216 6.67741 4.54764 6.61289 4.51538 6.54837C4.45087 6.48386 4.41861 6.41934 4.35409 6.48386C4.28958 6.54837 4.25732 6.61289 4.22506 6.64515C4.1928 6.67741 4.1928 6.74192 4.22506 6.8387C4.35409 7.12902 4.41861 7.4516 4.45087 7.61289C4.48313 7.77418 4.41861 7.80644 4.28958 7.80644C4.1928 7.80644 4.03151 7.77418 3.967 7.51612C3.90248 7.25805 3.87022 7.16128 3.90248 6.96773C3.90248 6.80644 3.93474 6.67741 3.80571 6.51612C3.67667 6.35483 3.67667 6.38708 3.64442 6.4516C3.61216 6.54837 3.5799 6.67741 3.61216 6.8387C3.67667 7.0645 3.70893 7.25805 3.74119 7.38708C3.77345 7.48386 3.67667 7.67741 3.51538 7.77418C3.48313 7.4516 3.45087 7.0645 3.41861 6.70966C3.61216 6.64515 3.51538 6.41934 3.35409 6.16128C3.25732 5.96773 3.1928 6.03225 3.12829 6.16128C3.06377 6.29031 3.09603 6.35483 3.16055 6.4516C3.12829 6.54837 3.1928 6.67741 3.22506 6.90321C3.25732 7.0645 3.28958 7.48386 3.28958 7.8387C3.16055 7.8387 3.06377 7.74192 2.99926 7.61289C2.90248 7.35483 2.90248 7.09676 2.967 6.96773C3.03151 6.80644 3.06377 6.58063 2.967 6.51612C2.87022 6.4516 2.77345 6.51612 2.70893 6.64515C2.5799 6.8387 2.45087 7.09676 2.45087 7.38708C2.45087 7.48386 2.41861 7.70967 2.35409 7.80644C2.32184 7.90321 2.22506 7.90321 2.16055 7.77418C2.03151 7.58063 1.99926 7.0645 1.99926 6.80644C1.99926 6.67741 1.967 6.64515 1.93474 6.80644C1.80571 7.32257 1.967 7.8387 2.06377 8.0645C2.22506 8.35483 2.38635 8.29031 2.48313 8.09676Z" fill="white"/>
<path d="M4.03025 6.41935C4.09476 6.35483 4.09476 6.35483 4.12702 6.41935C4.15928 6.48386 4.25605 6.48386 4.28831 6.41935C4.32057 6.35483 4.35283 6.32257 4.32057 6.2258C4.28831 6.16128 4.28831 6.19354 4.25605 6.25806C4.2238 6.38709 4.09476 6.35483 4.09476 6.19354C4.09476 6.03225 4.0625 6.12902 3.99799 6.2258C3.93347 6.38709 3.8367 6.35483 3.8367 6.19354C3.8367 6.09677 3.80444 5.99999 3.73992 6.12902C3.70767 6.2258 3.73992 6.32257 3.77218 6.38709C3.86896 6.48386 3.96573 6.48386 4.03025 6.41935Z" fill="white"/>
<path d="M3.06509 8.8387C3.16186 8.80644 3.16186 8.80644 3.16186 8.67741C3.16186 8.54838 3.09735 8.6129 2.96831 8.64515C2.77477 8.70967 2.38767 8.90322 2.09735 9.25806C1.96832 9.41935 2.06509 9.35483 2.16186 9.29031C2.32315 9.16128 2.80702 8.90322 3.06509 8.8387Z" fill="white"/>
<path d="M2.41756 10.9032C2.32078 11.0645 2.12724 10.8387 2.25627 10.4194C2.28853 10.3226 2.32078 10.2581 2.32078 10.1935C2.32078 10.129 2.32078 10.0645 2.32078 9.96774C2.32078 9.90322 2.25627 10 2.22401 10.129C2.19175 10.3226 2.06272 10.4194 2.09498 11.0323C2.12724 11.3871 2.54659 11.3871 2.57885 10.9355C2.57885 10.7419 2.51433 10.7419 2.41756 10.9032Z" fill="white"/>
<path d="M5.28939 9.54837C5.28939 9.38708 5.25713 9.22579 5.25713 9.0645C5.28939 9.0645 5.28939 9.03224 5.32165 9.03224C5.41842 9.32256 5.83778 9.25805 5.96681 9.0645C6.03133 8.96773 6.03133 8.96773 6.09584 9.0645C6.19262 9.19353 6.5152 9.25805 6.57971 9.0645C6.64423 8.87095 6.64423 8.6774 6.61197 8.54837C6.57971 8.38708 6.54746 8.41934 6.45068 8.48385C6.35391 8.54837 6.41842 8.58063 6.45068 8.6774C6.48294 9.0645 6.16036 9.03224 6.1281 8.64514C6.09584 8.38708 6.06359 8.48385 6.03133 8.61289C5.87004 9.09676 5.45068 9.19353 5.5152 8.61289C5.5152 8.4516 5.41842 8.51611 5.35391 8.58063C5.32165 8.61289 5.25713 8.6774 5.22488 8.70966C5.19262 8.25805 5.16036 7.74192 5.09584 7.09676C5.22488 7.25805 5.35391 7.0645 5.25713 6.90321C5.19262 6.77418 5.09584 6.4516 5.03133 6.29031C4.96681 6.12902 4.93455 6.16127 4.80552 6.32256C4.67649 6.4516 4.70875 6.48385 4.741 6.64514C4.741 6.83869 4.741 6.99998 4.80552 7.35482C4.83778 7.61289 4.90229 8.16127 4.96681 8.83869C4.90229 8.87095 4.80552 8.93547 4.741 8.96772C4.70875 8.83869 4.61197 8.77418 4.48294 8.64514C4.28939 8.4516 4.16036 8.4516 3.99907 8.6774C3.83778 8.90321 3.87004 8.93547 3.87004 9.16127C3.87004 9.35482 3.83778 9.41934 3.99907 9.48385C4.16036 9.54837 4.22487 9.51611 4.32165 9.48385C4.38617 9.4516 4.48294 9.41934 4.61197 9.38708C4.64423 9.48385 4.61197 9.61289 4.54746 9.6774C4.16036 10.129 3.57971 10.4839 3.32165 10.1613C3.19262 9.99998 3.1281 9.74192 3.16036 9.41934C3.19262 9.16127 3.1281 9.29031 3.09584 9.35482C2.99907 9.64514 2.96681 10.0968 3.09584 10.3226C3.25713 10.6451 3.54746 10.7742 3.99907 10.5484C4.45068 10.3548 4.87004 9.99998 4.87004 9.51611C4.87004 9.41934 4.87004 9.35482 4.87004 9.29031C4.93455 9.25805 4.99907 9.22579 5.03133 9.19353C5.03133 9.35482 5.03133 9.58063 5.03133 9.74192C5.06358 10.258 4.83778 10.4193 4.64423 10.5806C4.38617 10.7742 4.03133 10.9355 3.70875 10.9677C2.99907 11.0645 2.83778 10.6129 2.83778 9.99998C2.83778 9.90321 2.87004 9.83869 2.87004 9.70966C2.87004 9.4516 2.83778 9.48385 2.741 9.74192C2.67649 9.99998 2.57971 10.5806 2.80552 11.0645C3.06358 11.5484 3.90229 11.4193 4.54746 11.0968C5.25713 10.7419 5.32165 10.1613 5.28939 9.54837ZM4.38617 9.0645C4.22488 9.12902 4.16036 9.03224 4.19262 8.93547C4.19262 8.83869 4.22488 8.77418 4.35391 8.83869C4.41842 8.87095 4.48294 8.93547 4.54746 9.03224C4.45068 9.0645 4.41842 9.0645 4.38617 9.0645Z" fill="white"/>
<path d="M6.02989 10.0968C6.09441 9.96773 6.12667 9.8387 6.09441 9.67741C6.06215 9.58064 6.09441 9.54838 5.99764 9.48386C5.90086 9.4516 5.8686 9.51612 5.83635 9.58064C5.80409 9.67741 5.8686 9.80644 5.99764 9.74193C6.02989 9.80644 5.99764 9.96773 5.96538 10.0645C5.93312 10.1935 5.96538 10.2258 6.02989 10.0968Z" fill="white"/>
<path d="M6.29014 7.48386C6.16111 7.64515 6.06434 7.87095 6.25788 7.99998C6.35466 8.0645 6.54821 7.96773 6.61272 7.83869C6.67724 7.6774 6.64498 7.64515 6.51595 7.80644C6.35466 7.99998 6.16111 7.83869 6.35466 7.54837C6.48369 7.35482 6.38692 7.32257 6.29014 7.48386Z" fill="white"/>
<path d="M5.7406 7.51611C6.19221 7.32256 6.45028 7.0645 6.57931 6.83869C6.70834 6.87095 6.7406 6.77418 6.67608 6.6774C6.70834 6.58063 6.7406 6.51611 6.77286 6.45159C6.86963 6.03224 6.45028 5.99998 6.3535 6.32256C6.28899 6.48385 6.28899 6.64514 6.41802 6.74192C6.22447 6.99998 5.96641 7.22579 5.64383 7.41934C5.51479 7.54837 5.54705 7.61288 5.7406 7.51611ZM6.51479 6.38708C6.54705 6.2903 6.61157 6.35482 6.61157 6.41934C6.61157 6.45159 6.57931 6.51611 6.54705 6.54837C6.48254 6.51611 6.48254 6.45159 6.51479 6.38708Z" fill="white"/>
<path d="M6.35488 6.32259C6.29036 6.48388 6.29036 6.64517 6.41939 6.74195C6.38714 6.77421 6.35488 6.83872 6.32262 6.87098L6.48391 7.00001C6.51617 6.9355 6.58068 6.90324 6.61294 6.83872C6.74197 6.87098 6.77423 6.77421 6.70972 6.67743C6.74197 6.58066 6.77423 6.51614 6.80649 6.45163C6.87101 6.03227 6.48391 6.00001 6.35488 6.32259ZM6.61294 6.41937C6.61294 6.45162 6.58068 6.51614 6.54843 6.5484C6.48391 6.51614 6.48391 6.45162 6.51617 6.38711C6.54843 6.29033 6.61294 6.35485 6.61294 6.41937Z" fill="#CFE7E8"/>
<path d="M6.84016 10.0968C6.77564 10.129 6.67887 10.2258 6.61435 10.2903C6.61435 10.1613 6.64661 9.96775 6.64661 9.90323C6.64661 9.80645 6.61435 9.7742 6.54984 9.87097C6.45306 10.0645 6.35629 10.3226 6.32403 10.5161C5.90468 10.8065 5.38855 11.0968 5.03371 11.2581C4.87242 11.3226 4.96919 11.3871 5.09822 11.3548C5.5821 11.1936 5.96919 11.0645 6.32403 10.9032C6.35629 11.1936 6.45306 11.3871 6.71113 11.4516C7.195 11.5806 7.67887 11.1613 8.22726 10.4194C8.35629 10.7742 8.67887 11.2581 9.51758 11.3871C9.87242 11.4516 9.84016 11.4194 9.90468 11.2258C9.93693 11.0645 10.0015 11.0323 9.71113 10.9677C9.35629 10.8387 9.22726 10.5806 9.5821 10.4194C9.93693 10.2581 10.4208 10.129 10.7434 10.0645C10.9692 10.0323 11.0337 10.0323 11.0982 9.83871C11.1627 9.61291 11.195 9.58065 10.9692 9.61291C10.7111 9.64516 9.48532 9.67742 9.16274 9.64516C9.4208 9.51613 9.77564 9.3871 10.0337 9.29033C10.1305 9.35484 10.1627 9.32258 10.1305 9.25807C10.2273 9.22581 10.324 9.19355 10.4208 9.12904C10.7111 8.96774 10.8402 8.61291 10.5176 8.3871C10.195 8.16129 9.93693 8.09678 9.77564 8.32258C9.64661 8.51613 9.51758 8.70968 9.71113 8.96774C9.4208 9.06452 9.16274 9.16129 8.90468 9.25807C8.71113 9.32258 8.61435 9.35484 8.54984 9.61291C8.48532 9.87097 8.45306 9.87097 8.71113 9.90323C9.06597 9.90323 9.38855 9.90323 9.61435 10.0968C9.25951 10.2258 9.00145 10.4839 9.13048 10.8387C8.96919 10.8065 8.8079 10.7419 8.67887 10.6129C8.4208 10.3548 8.4208 9.90323 8.32403 9.3871C8.22726 8.87097 8.00145 8.41936 7.90468 8.22581C7.84016 8.03226 7.8079 8.12904 7.74339 8.25807C7.67887 8.3871 7.61435 8.45162 7.67887 8.64516C7.8079 8.96774 8.00145 9.61291 8.09822 10C7.90468 10.4516 7.38855 11 6.96919 11.0645C6.64661 11.129 6.54984 10.9355 6.5821 10.7742C6.8079 10.6452 7.00145 10.4839 7.195 10.2903C7.5821 9.87097 7.64661 9.54839 7.38855 8.87097C7.54984 8.90323 7.51758 8.7742 7.29177 8.48387C7.13048 8.29033 7.09822 8.32258 7.00145 8.51613C6.93693 8.67742 6.87242 8.80645 7.06597 8.87097C7.09822 8.96775 7.16274 9.09678 7.25951 9.25807C7.45306 9.67742 7.13048 9.83871 6.84016 10.0968ZM9.90468 8.67742C9.90468 8.58065 9.93693 8.58065 10.0982 8.67742C10.2595 8.7742 10.3885 8.80645 10.1627 8.83871C10.0982 8.87097 10.0015 8.87097 9.93693 8.90323C9.93693 8.80645 9.93693 8.74194 9.90468 8.67742Z" fill="white"/>
<path d="M10.933 9.61289C10.7717 9.61289 10.062 9.64515 9.57812 9.64515L10.2233 10.1935C10.3846 10.129 10.5781 10.0968 10.7072 10.0645C10.933 10.0322 10.9975 10.0322 11.062 9.8387C11.1265 9.61289 11.1588 9.58063 10.933 9.61289Z" fill="#CFE7E8"/>
<path d="M7.77344 8.09677L7.83795 8.16129C7.83795 8.09677 7.8057 8.09677 7.77344 8.09677Z" fill="#CFE7E8"/>
<path d="M9.41734 9.48387C9.61089 9.38709 9.83669 9.32258 9.99798 9.25806C10.0948 9.32258 10.127 9.29032 10.0948 9.2258C10.1915 9.19354 10.2883 9.16129 10.3851 9.09677C10.6754 8.93548 10.8044 8.58064 10.4819 8.35483C10.1593 8.12903 9.90121 8.06451 9.73992 8.29032C9.61089 8.48387 9.48185 8.67741 9.6754 8.93548C9.4496 9 9.25605 9.06451 9.0625 9.16129L9.41734 9.48387ZM10.127 8.67741C10.2883 8.77419 10.4173 8.80645 10.1915 8.8387C10.127 8.87096 10.0302 8.87096 9.96573 8.90322C9.93347 8.80645 9.93347 8.74193 9.93347 8.70967C9.90121 8.58064 9.96573 8.58064 10.127 8.67741Z" fill="#CFE7E8"/>
<path d="M10.6433 11.2903C10.74 11.2581 10.9013 11.1613 11.0304 11.0645C11.1594 10.9355 11.0626 10.9678 10.9658 11C10.8691 11.0323 10.7723 11.0968 10.6433 11.129C10.5142 11.1936 10.482 11.129 10.5465 10.9032C10.611 10.7097 10.5465 10.7097 10.4497 10.7419C10.3529 10.7742 10.3207 10.8387 10.2239 10.9032C10.1594 10.9355 10.1594 11 10.3207 10.9355C10.4497 10.871 10.4174 10.9355 10.3852 11.0968C10.3207 11.2581 10.4174 11.3548 10.6433 11.2903Z" fill="white"/>
<path d="M7.64533 7.77419C7.7421 7.54838 7.80662 7.32258 7.87114 7.16129C7.93565 7 8.00017 7.03226 7.96791 7.19355C7.93565 7.48387 7.93565 7.93548 8.22598 8.12903C8.5163 8.29032 8.96791 8 9.1292 7.67742C9.61307 8.29032 10.0324 8 10.0647 7.41935C10.0647 7.2258 10.0002 6.83871 9.93565 6.70967C9.87114 6.58064 9.93565 6.58064 10.0002 6.64516C10.0647 6.70967 10.1937 6.77419 10.1292 6.54838C10.0647 6.35484 9.96791 6.2258 9.87114 6.12903C9.77436 6.03226 9.7421 6.09677 9.70985 6.16129C9.67759 6.2258 9.67759 6.25806 9.61307 6.32258C9.54856 6.38709 9.58081 6.41935 9.61307 6.51613C9.80662 6.96774 9.96791 7.64516 9.67759 7.70967C9.41952 7.77419 9.25823 7.19355 9.25823 6.93548C9.25823 6.6129 9.19372 6.32258 9.1292 6.12903C9.06468 5.93548 9.03243 5.93548 8.96791 6.03226C8.93565 6.09677 8.93565 6.16129 8.87114 6.2258C8.83888 6.29032 8.87114 6.32258 8.90339 6.45161C9.06469 7.19355 9.03243 7.51613 8.70985 7.70967C8.38727 7.90322 8.19372 7.70968 8.19372 7.48387C8.19372 7.25806 8.19372 6.96774 8.22598 6.77419C8.25823 6.58064 8.29049 6.51613 8.22598 6.41935C8.16146 6.32258 8.09694 6.35484 8.00017 6.48387C7.80662 6.77419 7.58081 7.25806 7.5163 7.48387C7.45178 7.70968 7.29049 7.64516 7.19372 7.45161C7.06468 7.2258 7.09694 6.80645 7.1292 6.6129C7.16146 6.45161 7.16146 6.38709 7.06468 6.54838C6.90339 7 6.90339 7.45161 7.25823 7.83871C7.41952 8.12903 7.54856 8 7.64533 7.77419Z" fill="#CFE7E8"/>
<path d="M8.54851 6.90321C8.54851 6.99999 8.54851 7.12902 8.61303 6.93547C8.64529 6.74192 8.64529 6.48386 8.58077 6.32257C8.51626 6.16128 8.484 6.12902 8.41948 6.19354C8.35496 6.25805 8.35496 6.29031 8.41948 6.35483C8.484 6.4516 8.58077 6.67741 8.54851 6.90321Z" fill="#CFE7E8"/>
<path d="M9.22699 8.41934C9.22699 8.67741 9.16248 8.67741 9.0657 8.41934C9.03345 8.32257 9.00119 8.32257 8.96893 8.4516C8.96893 8.67741 8.87216 8.70966 8.80764 8.48386C8.77538 8.38708 8.77538 8.29031 8.74312 8.4516C8.71087 8.58063 8.74312 8.67741 8.80764 8.77418C8.87216 8.8387 8.96893 8.8387 9.00119 8.74192C9.03345 8.64515 9.0657 8.64515 9.13022 8.70967C9.19474 8.77418 9.4528 8.70966 9.32377 8.35483C9.25925 8.22579 9.22699 8.25805 9.22699 8.41934Z" fill="#CFE7E8"/>
<path d="M11.8384 6.38709C11.9352 6.45161 12.032 6.6129 11.9997 6.80645C11.9675 6.96774 11.9997 7.06451 12.0965 6.83871C12.1933 6.6129 12.1287 6.35483 12.032 6.19354C11.9352 6.03225 11.9029 6.09677 11.8384 6.16129C11.7739 6.25806 11.7416 6.35483 11.8384 6.38709Z" fill="#CFE7E8"/>
<path d="M10.1934 6.48386C10.1934 6.58064 10.2257 6.64515 10.3547 6.67741C10.6128 7.03225 10.9031 7.41935 11.1612 7.77419C11.1934 8.09677 11.2579 8.41935 11.2902 8.70967C11.3547 9.35483 11.4837 10.2258 11.387 10.6129C11.3225 10.9032 11.387 11 11.516 10.5806C11.645 10.1613 11.645 9.74193 11.5483 9.12903C11.516 8.87096 11.516 8.58064 11.4837 8.25806C11.9031 8.93548 12.3225 9.58064 12.4837 10.0323C12.5805 10.2903 12.6773 10.3226 12.5805 9.99999C12.4837 9.54838 12.0644 8.77419 11.4192 7.80645C11.387 7.54838 11.387 7.29032 11.387 7.09677C11.4837 7.19354 11.5483 7.12903 11.516 6.99999C11.4515 6.74193 11.3547 6.54838 11.2579 6.29032C11.2257 6.16128 11.0966 6.16128 11.0321 6.32257C10.9676 6.51612 10.9676 6.54838 11.0321 6.67741C11.0321 6.8387 11.0644 7.06451 11.0966 7.29032C10.9999 7.12903 10.8386 6.90322 10.7096 6.74193C10.8708 6.80644 10.9999 6.77419 10.8386 6.58064C10.6773 6.41935 10.4515 6.2258 10.3225 6.09677C10.1934 5.96774 10.1289 6.06451 10.1289 6.16128C10.1934 6.32257 10.2257 6.38709 10.1934 6.48386Z" fill="#CFE7E8"/>
<path d="M12.0334 7.3871C12.0011 7.54839 11.9366 7.48388 11.9044 7.35485C11.8721 7.29033 11.8398 7.32259 11.8398 7.45162C11.8721 7.58065 11.9044 7.67743 12.0011 7.58065C12.0657 7.51614 12.0657 7.51614 12.1624 7.58065C12.2269 7.64517 12.2915 7.58065 12.3237 7.54839C12.3237 7.51614 12.356 7.45162 12.3237 7.29033C12.2915 7.12904 12.2592 7.22581 12.2269 7.35485C12.1947 7.48388 12.1302 7.51614 12.0979 7.35485C12.0979 7.22581 12.0334 7.25807 12.0334 7.3871Z" fill="#CFE7E8"/>
<path d="M12.7737 9.48386C12.806 10.0645 12.8705 10.3226 12.5157 10.7419C12.1286 11.1613 11.8705 11.2903 11.7092 11.3226C11.4834 11.3871 11.4189 11.4839 11.7415 11.4516C12.2254 11.4193 12.2899 11.4193 12.7092 10.9355C12.935 10.6774 13.0318 10.3548 13.0318 9.58064C12.9995 8.2258 12.8383 7.64515 12.8383 6.90322C12.9028 6.96773 12.9995 6.96773 12.9673 6.8387C12.9028 6.67741 12.8705 6.48386 12.8383 6.32257C12.7737 6.16128 12.7415 6.09677 12.677 6.19354C12.6125 6.29031 12.5479 6.32257 12.5157 6.38709C12.4834 6.4516 12.4512 6.54838 12.5157 6.64515C12.7092 8.2258 12.7415 8.90322 12.7737 9.48386Z" fill="#CFE7E8"/>
<path d="M13.6123 9.64515C13.6446 9.96773 13.7091 10.1935 13.6123 10.5806C13.58 10.6774 13.6446 10.7419 13.7091 10.5806C13.9994 10.0322 13.8059 9.54837 13.7736 9.22579C13.7413 8.74192 13.5478 7.48386 13.5155 6.96773L13.5478 6.99999C13.6768 7.0645 13.8381 7.12902 13.7413 6.93547C13.6446 6.77418 13.5478 6.48386 13.4833 6.29031C13.4188 6.09676 13.3865 6.09676 13.2897 6.25805C13.0962 6.51611 13.2252 6.77418 13.2897 7.09676C13.4188 8.19353 13.58 9.32257 13.6123 9.64515Z" fill="#CFE7E8"/>
<path d="M14.2902 7.8387C14.387 7.93547 14.4515 8.12902 14.516 8.22579C14.5805 8.38708 14.645 8.25805 14.645 8.16128C14.645 8.0645 14.6128 7.77418 14.645 7.67741C14.7096 7.51612 14.8063 7.74192 14.8386 7.64515C14.8708 7.58063 14.8063 7.54837 14.7741 7.48386C14.7418 7.38708 14.7096 7.41934 14.645 7.4516C14.5805 7.51612 14.5483 7.58063 14.5483 7.61289C14.5483 7.70966 14.5483 7.80644 14.5483 7.96773C14.5483 8.09676 14.516 8.09676 14.4837 8.03224C14.4515 7.93547 14.3547 7.70966 14.2902 7.64515C14.2257 7.58063 14.1289 7.61289 14.1289 7.70966C14.1289 7.80644 14.1289 7.77418 14.1289 7.87095C14.1289 7.93547 14.2579 7.93547 14.2902 7.8387Z" fill="#CFE7E8"/>
<path d="M14.2266 9.09676C14.2266 9.19353 14.3556 9.0645 14.4524 8.99998C14.5491 8.93547 14.8395 8.74192 14.9685 8.6774C15.0975 8.61289 15.0653 8.58063 15.033 8.4516C15.033 8.32256 14.9362 8.41934 14.8395 8.51611C14.7427 8.61289 14.4524 8.80643 14.3556 8.90321C14.2588 8.99998 14.2266 9.03224 14.2266 9.09676Z" fill="#CFE7E8"/>
<path d="M13.5481 10.8387C13.4191 10.5806 13.4191 10.3226 13.4191 10.0968C13.4191 9.90322 13.3868 9.74193 13.3223 10.0645C13.1288 10.8387 13.2578 11 13.4513 11.1613C13.7094 11.3871 13.8062 11.4194 13.9352 11.1935C14.1933 10.8064 14.29 10.4839 14.4191 10.2903C14.5481 10.129 14.5481 10.2581 14.6126 10.3226C14.7739 10.5161 14.903 10.5806 15.1288 10.6129C15.3546 10.6452 15.7417 10.4516 15.7094 9.74193C15.6771 9.29032 15.6449 8.70967 15.6126 8.06451C15.8384 8.35483 15.9997 8.6129 16.161 8.83871C16.2255 9.25806 16.2578 9.64516 16.2578 9.93548C16.2255 10.2903 16.3223 10.2903 16.3868 9.93548C16.4191 9.80645 16.4191 9.48387 16.3868 9.12903C16.6771 9.51612 16.8384 9.74193 16.9352 9.93548C17.0642 10.1613 17.1288 10.3226 17.0965 9.90322C17.0965 9.74193 17.032 9.6129 16.8384 9.32258C16.6449 9.06451 16.4836 8.80645 16.3223 8.54838C16.2578 7.93548 16.1933 7.25806 16.1933 6.90322C16.29 6.96774 16.3546 6.90322 16.29 6.77419C16.2578 6.64516 16.161 6.25806 16.0965 6.12903C16.032 6 15.9675 6 15.903 6.16129C15.8384 6.29032 15.7739 6.35483 15.8062 6.45161C15.8384 7.06451 15.903 7.64516 15.9997 8.16129C15.8384 7.93548 15.6771 7.70967 15.5481 7.51612C15.5481 7.29032 15.5159 7.06451 15.5159 6.83871C15.6126 6.90322 15.6449 6.90322 15.6126 6.74193C15.5804 6.6129 15.4513 6.29032 15.3868 6.16129C15.3223 6.03225 15.29 6.03225 15.2255 6.12903C15.1288 6.29032 15.0965 6.41935 15.1933 6.58064C15.1933 6.74193 15.2255 6.87096 15.2255 7.03225C15.1288 6.90322 15.0642 6.77419 14.9675 6.67742C15.0642 6.70967 15.1288 6.64516 15.032 6.54838C14.9352 6.45161 14.7417 6.29032 14.6449 6.19354C14.5481 6.06451 14.4836 6.09677 14.4836 6.19354C14.4836 6.29032 14.4836 6.38709 14.4836 6.48387C14.4836 6.58064 14.4836 6.64516 14.5804 6.80645C14.8062 7.09677 15.0642 7.38709 15.2578 7.67742C15.3546 8.70967 15.3868 9.38709 15.3868 9.80645C15.3868 10.0645 15.29 10.1935 15.161 10.2258C15.032 10.2581 14.903 10.1935 14.7739 10C14.5481 9.67742 14.4513 9.74193 14.29 10.0323C14.1288 10.3226 13.9997 10.5484 13.903 10.7419C13.8384 10.9355 13.6771 11.0968 13.5481 10.8387Z" fill="#CFE7E8"/>
<path d="M16.6467 7.25806C16.6467 7.4516 16.7112 7.41935 16.7434 7.25806C16.7757 7.09677 16.7757 6.77418 16.6789 6.58064C16.5821 6.35483 16.5499 6.4516 16.5176 6.51612C16.4531 6.61289 16.4531 6.64515 16.5499 6.74193C16.5821 6.8387 16.6467 7.06451 16.6467 7.25806Z" fill="#CFE7E8"/>
<path d="M17.5154 9.25807C17.4509 7.90323 17.2896 7.32259 17.3219 6.80646C17.4509 6.90323 17.4832 6.87098 17.4187 6.70969C17.3541 6.54839 17.2574 6.35485 17.1929 6.1613C17.1283 6.00001 17.0961 6.03227 16.9993 6.1613C16.9025 6.29033 16.9025 6.3871 16.9348 6.45162C17.1283 8.09678 17.2251 8.96775 17.2574 9.48388C17.2896 10.1936 17.1283 10.6129 16.4187 11.0968C16.1929 11.2581 15.9348 11.4194 16.4832 11.2903C16.9993 11.129 17.58 10.7742 17.5154 9.25807Z" fill="#CFE7E8"/>
<path d="M15.7114 10.6774C15.6147 10.8064 15.8405 10.871 15.8727 10.7742C15.9372 10.871 15.8727 11.0322 15.776 11.129C15.6147 11.2581 15.7114 11.2903 15.8082 11.1935C15.905 11.129 16.163 10.8387 16.0018 10.6452C15.905 10.5806 15.776 10.5806 15.7114 10.6774Z" fill="#CFE7E8"/>
<path d="M14.9991 13.0645C14.5798 13.0645 14.1927 13.0645 13.7733 13.0968V12.9678C13.9023 12.8065 13.8701 12.8065 13.7733 12.6452C13.7411 12.5807 13.7088 12.5161 13.612 12.6452C13.5152 12.7742 13.5152 12.8065 13.6443 12.9678V13.0968C10.4507 13.129 6.9346 13.0968 3.90234 13.0645C4.22492 13.6129 5.3217 13.5807 6.3217 13.5807C7.22492 13.5807 9.9346 13.5807 13.612 13.4839V13.6452C13.483 13.8065 13.5152 13.8065 13.612 13.9678C13.7088 14.0968 13.7411 14.0323 13.7733 13.9678C13.8056 13.9355 13.8056 13.9032 13.8056 13.9032H14.2894C14.2894 13.9678 14.3862 14 14.4185 14C14.4507 14 14.5475 13.9678 14.5475 13.9032H15.0959C15.1604 14 15.2249 14.0323 15.3217 14.0323C15.5152 14.0323 15.612 13.8065 15.5798 13.5161C15.5475 13.0968 15.3862 13.0323 14.9991 13.0645ZM14.5475 13.7097C14.5475 13.6452 14.4507 13.6129 14.4185 13.6129C14.3862 13.6129 14.2894 13.6452 14.2894 13.7097H13.8056C13.8056 13.6774 13.7733 13.6452 13.7088 13.5807V13.4194C14.1281 13.4194 14.5798 13.3871 15.0314 13.3871C14.9991 13.4839 14.9991 13.5807 14.9991 13.6774L14.5475 13.7097Z" fill="white"/>
<path d="M14.999 13.0645C14.5797 13.0645 14.1926 13.0645 13.7732 13.0968V12.9678C13.9023 12.8065 13.87 12.8065 13.7732 12.6452C13.741 12.5807 13.7087 12.5161 13.612 12.6452C13.5152 12.7742 13.5152 12.8065 13.6442 12.9678V13.0968C13.6442 13.0968 13.6442 13.0968 13.612 13.0968L14.0636 13.4839C14.3861 13.4839 14.741 13.4516 15.0636 13.4516C15.0313 13.5484 15.0313 13.6452 15.0313 13.7419H14.5474C14.5474 13.6774 14.4507 13.6452 14.4184 13.6452C14.3861 13.6452 14.3216 13.6774 14.3216 13.7097L14.5474 13.9032V13.871H15.0958C15.1603 13.9678 15.2249 14 15.3216 14C15.5152 14 15.612 13.7742 15.5797 13.4839C15.5474 13.0968 15.3861 13.0323 14.999 13.0645Z" fill="#CFE7E8"/>
</svg>
