<svg width="20" height="20" viewBox="0 0 20 20" fill="none" xmlns="http://www.w3.org/2000/svg">
<path fill-rule="evenodd" clip-rule="evenodd" d="M3.77801 12.946C4.54378 12.1802 5.5824 11.75 6.66536 11.75H13.332C14.415 11.75 15.4536 12.1802 16.2194 12.946C16.9852 13.7118 17.4154 14.7504 17.4154 15.8333V17.5C17.4154 17.9142 17.0796 18.25 16.6654 18.25C16.2512 18.25 15.9154 17.9142 15.9154 17.5V15.8333C15.9154 15.1482 15.6432 14.4911 15.1587 14.0066C14.6743 13.5222 14.0172 13.25 13.332 13.25H6.66536C5.98022 13.25 5.32314 13.5222 4.83867 14.0066C4.3542 14.4911 4.08203 15.1482 4.08203 15.8333V17.5C4.08203 17.9142 3.74624 18.25 3.33203 18.25C2.91782 18.25 2.58203 17.9142 2.58203 17.5V15.8333C2.58203 14.7504 3.01224 13.7118 3.77801 12.946Z" fill="#555555"/>
<path fill-rule="evenodd" clip-rule="evenodd" d="M10.0013 3.25C8.57457 3.25 7.41797 4.4066 7.41797 5.83333C7.41797 7.26007 8.57457 8.41667 10.0013 8.41667C11.428 8.41667 12.5846 7.26007 12.5846 5.83333C12.5846 4.4066 11.428 3.25 10.0013 3.25ZM5.91797 5.83333C5.91797 3.57817 7.74614 1.75 10.0013 1.75C12.2565 1.75 14.0846 3.57817 14.0846 5.83333C14.0846 8.0885 12.2565 9.91667 10.0013 9.91667C7.74614 9.91667 5.91797 8.0885 5.91797 5.83333Z" fill="#555555"/>
</svg>
