<svg width="24" height="24" viewBox="0 0 24 24" fill="none" xmlns="http://www.w3.org/2000/svg">
<g clip-path="url(#clip0_6802_39917)">
<path d="M23.2969 8.28436H20.9601C20.6003 3.65602 16.7191 0 12 0C7.28091 0 3.39975 3.65602 3.03989 8.28436H0.703125C0.314812 8.28436 0 8.59917 0 8.98748V16.5187C0 16.9071 0.314812 17.2219 0.703125 17.2219H3.71564C4.10395 17.2219 4.41877 16.9071 4.41877 16.5187V8.98748C4.41877 4.80717 7.81969 1.40625 12 1.40625C16.1803 1.40625 19.5812 4.80717 19.5812 8.98748V16.5187C19.5812 19.038 17.5317 21.0875 15.0125 21.0875H14.094C13.7996 20.2131 12.9724 19.5813 12 19.5813C10.7818 19.5813 9.79059 20.5724 9.79059 21.7906C9.79059 23.0089 10.7818 24 12 24C12.9724 24 13.7996 23.3682 14.094 22.4938H15.0125C18.0692 22.4938 20.5968 20.1863 20.9459 17.2219H23.2969C23.6852 17.2219 24 16.9071 24 16.5187V8.98748C24 8.59917 23.6852 8.28436 23.2969 8.28436ZM3.01252 15.8156H1.40625V9.69061H3.01252V15.8156ZM12 22.5938C11.5572 22.5938 11.1968 22.2335 11.1968 21.7906C11.1968 21.3478 11.5572 20.9875 12 20.9875C12.4428 20.9875 12.8032 21.3478 12.8032 21.7906C12.8032 22.2335 12.4428 22.5938 12 22.5938ZM22.5938 15.8156H20.9875V9.69061H22.5938V15.8156Z" fill="#365327"/>
<path d="M17.1637 8.33787C16.901 8.22903 16.5986 8.28912 16.3975 8.49021C16.3974 8.49021 14.2022 10.6848 13.1613 11.7248C12.6939 12.1948 12.4258 12.8442 12.4258 13.5062C12.4258 13.8945 12.7406 14.2093 13.1289 14.2093H16.1914V15.7656C16.1914 16.1539 16.5062 16.4687 16.8946 16.4687C17.2829 16.4687 17.5977 16.1539 17.5977 15.7656V14.2093H17.6477C18.036 14.2093 18.3508 13.8945 18.3508 13.5062C18.3508 13.1179 18.036 12.8031 17.6477 12.8031H17.5977V8.98746C17.5977 8.70312 17.4264 8.44676 17.1637 8.33787ZM16.1914 12.8031H14.0807C14.1047 12.7735 14.1301 12.7451 14.1569 12.718C14.6836 12.1917 15.5072 11.3685 16.1914 10.6845V12.8031Z" fill="#365327"/>
<path d="M11.1953 15.7656C11.1953 15.3772 10.8804 15.0624 10.4921 15.0624H7.67836C7.70222 15.0328 7.72763 15.0043 7.75448 14.9773C8.79384 13.9387 10.9892 11.7441 10.9892 11.7441C11.1211 11.6122 11.1953 11.4333 11.1953 11.2468V10.8703C11.1953 9.44436 10.0353 8.2843 8.60939 8.2843C7.16934 8.2843 6.02344 9.45111 6.02344 10.8695V10.8702C6.02344 11.2585 6.33825 11.573 6.72656 11.573C7.11488 11.573 7.42969 11.2578 7.42969 10.8695C7.42969 10.2249 7.94864 9.69055 8.60939 9.69055C9.25988 9.69055 9.78905 10.2198 9.78905 10.8703V10.9555C9.21891 11.5254 7.60636 13.1374 6.75895 13.9842C6.29147 14.4542 6.02344 15.1035 6.02344 15.7656C6.02344 16.1539 6.33825 16.4687 6.72656 16.4687H10.4922C10.8804 16.4687 11.1953 16.1539 11.1953 15.7656Z" fill="#365327"/>
</g>
<defs>
<clipPath id="clip0_6802_39917">
<rect width="24" height="24" fill="white"/>
</clipPath>
</defs>
</svg>
